<svg width="195" height="31" viewBox="0 0 195 31" fill="none" xmlns="http://www.w3.org/2000/svg">
<path d="M25.8633 30.0704H16.9079L11.8176 19.9714H7.81658V30.0704H0V0H15.1824C18.4544 0 21.0297 0.947656 22.9105 2.84083C24.7892 4.734 25.7296 7.12346 25.7296 10.0092C25.7296 12.4136 25.13 14.3753 23.9351 15.892C22.738 17.4108 21.3209 18.4547 19.686 19.0259L25.8633 30.0704ZM13.9982 13.2094C15.0594 13.2094 15.9524 12.9249 16.6793 12.3538C17.4061 11.7826 17.7707 10.9868 17.7707 9.96429C17.7707 8.97171 17.4061 8.19091 16.6793 7.61975C15.9524 7.04859 15.0573 6.76408 13.9982 6.76408H7.81658V13.2116H13.9982V13.2094Z" fill="#1E1E1E"/>
<path d="M39.6522 30.6116C36.0459 30.6116 33.1514 29.4992 30.9707 27.2745C28.788 25.0497 27.6987 22.3458 27.6987 19.1606C27.6987 15.9754 28.7901 13.2778 30.9707 11.0681C33.1535 8.8583 36.0459 7.75449 39.6522 7.75449C43.2888 7.75449 46.1984 8.8583 48.379 11.0681C50.5618 13.2778 51.651 15.9754 51.651 19.1606C51.651 22.3458 50.5597 25.0519 48.379 27.2745C46.1984 29.4992 43.2888 30.6116 39.6522 30.6116ZM36.1753 22.9705C37.0079 23.978 38.1683 24.4807 39.6522 24.4807C41.1362 24.4807 42.3117 23.978 43.1744 22.9705C44.0372 21.9651 44.4707 20.6944 44.4707 19.1606C44.4707 17.6589 44.0394 16.4032 43.1744 15.3956C42.3117 14.3881 41.1362 13.8854 39.6522 13.8854C38.1661 13.8854 37.0079 14.3881 36.1753 15.3956C35.3406 16.4032 34.9243 17.6567 34.9243 19.1606C34.9243 20.6922 35.3406 21.9629 36.1753 22.9705Z" fill="#1E1E1E"/>
<path d="M77.152 30.0704H70.1529V27.4563C68.2742 29.5613 65.7442 30.6116 62.5628 30.6116C60.1384 30.6116 58.3288 30.002 57.1317 28.7848C55.9346 27.5676 55.3372 25.9076 55.3372 23.8026V8.29572H62.3363V20.9639C62.3363 23.3085 63.5485 24.4807 65.9728 24.4807C67.6379 24.4807 69.0334 23.7748 70.155 22.3629V8.29785H77.1542V30.0704H77.152Z" fill="#1E1E1E"/>
<path d="M155.18 30.0705H148.181V27.9056C147.484 28.7164 146.522 29.371 145.295 29.8672C144.068 30.3635 142.756 30.6117 141.363 30.6117C139.454 30.6117 137.718 29.9892 136.158 28.7399C134.597 27.4927 133.818 25.7279 133.818 23.4433C133.818 21.0388 134.575 19.274 136.091 18.1467C137.606 17.0193 139.364 16.4567 141.365 16.4567C144.547 16.4567 146.82 17.2996 148.183 18.981V16.3669C148.183 15.4064 147.788 14.6384 147.001 14.0673C146.214 13.4961 145.122 13.2116 143.729 13.2116C141.395 13.2116 139.32 13.9774 137.502 15.5112L135.002 11.1387C137.668 8.88403 140.988 7.75668 144.956 7.75668C146.35 7.75668 147.631 7.90001 148.798 8.18452C149.965 8.47117 151.041 8.92896 152.024 9.56002C153.008 10.1911 153.782 11.0917 154.343 12.2639C154.904 13.4362 155.184 14.8331 155.184 16.4567V30.0705H155.18ZM144.27 26.0574C146.149 26.0574 147.452 25.5311 148.179 24.4786V22.5406C147.422 21.5202 146.117 21.0089 144.27 21.0089C143.27 21.0089 142.437 21.2271 141.771 21.6635C141.104 22.0999 140.77 22.7224 140.77 23.5353C140.77 24.3482 141.102 24.9707 141.771 25.407C142.437 25.8392 143.27 26.0574 144.27 26.0574Z" fill="#1E1E1E"/>
<path d="M194.906 30.0704H187.952V16.816C187.952 14.863 186.981 13.8854 185.042 13.8854C183.466 13.8854 182.148 14.5913 181.089 16.0032V30.0683H174.087V16.8139C174.087 14.8608 173.117 13.8832 171.178 13.8832C169.724 13.8832 168.419 14.5892 167.269 16.001V30.0661H160.27V8.2957H167.269V10.9547C167.845 10.2038 168.799 9.48294 170.134 8.79198C171.467 8.10103 172.92 7.75449 174.497 7.75449C177.739 7.75449 179.816 9.04655 180.724 11.6307C181.421 10.5782 182.458 9.66905 183.839 8.90322C185.217 8.1374 186.709 7.75449 188.316 7.75449C190.406 7.75449 192.028 8.30426 193.18 9.39951C194.332 10.4969 194.908 12.127 194.908 14.2918V30.0704H194.906Z" fill="#1E1E1E"/>
<path d="M129.798 8.28284H80.9763V12.5826H129.798V8.28284Z" fill="#84BD00"/>
<path d="M129.8 25.7834H109.376V30.081H129.8V25.7834Z" fill="#84BD00"/>
<path d="M129.798 17.1861V21.4837H101.648V30.0811H97.3127V17.1861H129.798Z" fill="#84BD00"/>
<path d="M92.0498 17.1861V30.0811H87.7145V21.4837H80.9763V17.1861H92.0498Z" fill="#84BD00"/>
</svg>
